<svg width="60" height="60" viewBox="0 0 60 60" fill="none" xmlns="http://www.w3.org/2000/svg">
<path opacity="0.4" d="M30.0015 55C43.8086 55 55.0015 43.8071 55.0015 30C55.0015 16.1929 43.8086 5 30.0015 5C16.1943 5 5.00146 16.1929 5.00146 30C5.00146 43.8071 16.1943 55 30.0015 55Z" fill="#00D3C7"/>
<path d="M26.4516 38.95C25.9516 38.95 25.4766 38.75 25.1266 38.4L18.0516 31.325C17.3266 30.6 17.3266 29.4 18.0516 28.675C18.7766 27.95 19.9766 27.95 20.7016 28.675L26.4516 34.425L39.3016 21.575C40.0266 20.85 41.2266 20.85 41.9516 21.575C42.6766 22.3 42.6766 23.5 41.9516 24.225L27.7766 38.4C27.4266 38.75 26.9516 38.95 26.4516 38.95Z" fill="#00D3C7"/>
</svg>
